<svg width="30" height="17" viewBox="0 0 30 17" fill="none" xmlns="http://www.w3.org/2000/svg">
<path d="M16.8559 8.3951C16.8559 12.9879 13.1806 16.7111 8.64718 16.7111C4.11375 16.7111 0.438477 12.9879 0.438477 8.3951C0.438477 3.80229 4.11375 0.0791016 8.64718 0.0791016C13.1806 0.0791016 16.8559 3.80229 16.8559 8.3951Z" fill="#DDDDDD"/>
<path d="M25.8608 8.39393C25.8608 12.7174 24.0232 16.2219 21.7563 16.2219C19.4895 16.2219 17.6519 12.7171 17.6519 8.39393C17.6519 4.07079 19.4895 0.565918 21.7563 0.565918C24.0232 0.565918 25.8608 4.07079 25.8608 8.39393Z" fill="#DDDDDD"/>
<path d="M29.5434 8.39673C29.5434 12.2703 28.8972 15.4104 28.0998 15.4104C27.3024 15.4104 26.6562 12.2703 26.6562 8.39673C26.6562 4.52313 27.3024 1.38306 28.0998 1.38306C28.8972 1.38306 29.5434 4.52313 29.5434 8.39673Z" fill="#DDDDDD"/>
</svg>
