<svg width="21" height="21" viewBox="0 0 21 21" fill="none" xmlns="http://www.w3.org/2000/svg">
<path d="M19.2945 18.6691L12.3295 8.77872L11.5419 7.66021L6.55792 0.586631L6.14492 0H0.0234375L1.51617 2.12072L8.14169 11.5288L8.92919 12.6456L14.2527 20.2049L14.6657 20.7898H20.7889L19.2945 18.6691ZM15.3919 19.4353L9.86192 11.5818L9.07442 10.4633L2.65719 1.35279H5.41695L10.6074 8.72228L11.3949 9.84076L18.1534 19.437H15.3919V19.4353Z" fill="#DDDDDD"/>
<path d="M9.0755 10.4651L9.86301 11.5836L8.93028 12.6456L1.76575 20.7898H0L8.14277 11.5289L9.0755 10.4651Z" fill="#DDDDDD"/>
<path d="M20.0524 0L12.3314 8.77872L11.3969 9.84076L10.6094 8.72228L11.5439 7.66021L16.7746 1.71027L18.2867 0H20.0524Z" fill="#DDDDDD"/>
</svg>
